<?xml version="1.0" encoding="utf-8"?>
<!-- Generator: Adobe Illustrator 28.2.0, SVG Export Plug-In . SVG Version: 6.00 Build 0)  -->
<svg version="1.1" id="Layer_1" xmlns="http://www.w3.org/2000/svg" xmlns:xlink="http://www.w3.org/1999/xlink" x="0px" y="0px"
	 viewBox="0 0 512 512" style="enable-background:new 0 0 512 512;" xml:space="preserve">
<style type="text/css">
	.st0{fill:#FFFFFF;}
	.st1{fill:#053D5D;}
	.st2{fill:#B62432;}
</style>
<path class="st0" d="M449.82,494.92H61.8c-28.77,0-52.1-23.32-52.1-52.1V66.44c0-28.77,23.32-52.1,52.1-52.1h388.02
	c28.77,0,52.1,23.32,52.1,52.1v376.39C501.92,471.6,478.59,494.92,449.82,494.92z"/>
<g>
	<path class="st1" d="M197,207.19h40.55l-5.59,12.44c13.48-6.97,28.63-14.77,44.59-14.77c14.67,0,23.36,5.14,23.69,15.93
		c16.4-9.62,29.37-15.93,47.06-15.93c22.65,0,26.18,12.78,20.74,24.89l-29.52,65.71h-40.55l25.19-56.08
		c2.83-6.3,3.72-12.61-6.63-12.61c-7.55,0-16.82,4.31-20.75,7.3l-27.58,61.39h-40.55l25.2-56.08c2.83-6.3,3.72-12.61-6.63-12.61
		c-7.55,0-16.82,4.31-20.75,7.3l-27.58,61.39h-40.55L197,207.19z"/>
	<path class="st1" d="M384.14,267.64c4.31,9.13,12.89,12.11,27.34,12.11c11,0,19.32-3.15,21.03-6.97c1.34-2.99,1.17-5.48-19.64-8.13
		c-19.8-2.49-29.47-4.98-33.9-10.95c-4.09-5.31-3.62-12.11-1.16-17.59c7.6-16.92,32.27-31.03,63.11-31.03
		c18.98,0,39.2,3.48,42.86,17.42L455,233.29c-0.49-5.64-11.94-8.96-20.56-8.96c-8.63,0-16.2,1.49-18.59,6.8
		c-1.64,3.65,1.94,4.81,15.36,6.14c34.81,3.65,48.76,12.45,41.01,29.7c-8.27,18.42-30.12,31.03-72.82,31.03
		c-21.57,0-38.11-4.48-44.5-18.58L384.14,267.64z"/>
	<polygon class="st1" points="138.24,207.17 123.91,239 94.21,239.01 108.47,207.24 68,207.24 28.21,295.41 68.82,295.41 
		84.53,260.58 114.19,260.58 98.56,295.44 139.17,295.44 178.71,207.17 	"/>
	<polygon class="st2" points="187.4,314.51 153.43,388.74 186.11,388.74 219.93,314.51 	"/>
	<polygon class="st2" points="256.45,388.74 290.27,314.51 257.74,314.51 223.78,388.74 	"/>
	<polygon class="st2" points="275.39,123.26 244.82,190.07 277.57,190.07 307.92,123.26 	"/>
	<polygon class="st2" points="345.25,123.26 314.68,190.07 347.43,190.07 377.79,123.26 	"/>
</g>
</svg>
